<?xml version="1.0" encoding="UTF-8"?>
<svg version="1.1" xmlns="http://www.w3.org/2000/svg" width="600" height="315">
<path d="M0 0 C198 0 396 0 600 0 C600 103.95 600 207.9 600 315 C402 315 204 315 0 315 C0 211.05 0 107.1 0 0 Z " fill="#FEFEFE" transform="translate(0,0)"/>
<path d="M0 0 C0.69771011 0.00359528 1.39542023 0.00719055 2.11427307 0.01089478 C3.2117688 0.01067574 3.2117688 0.01067574 4.33143616 0.01045227 C6.76094989 0.0111515 9.19038789 0.01894432 11.61988831 0.02676392 C13.29997719 0.02862806 14.98006662 0.03005198 16.66015625 0.03105164 C21.09071849 0.03487709 25.52124815 0.04470761 29.95179749 0.05575562 C35.2631386 0.06776362 40.57449058 0.07237184 45.88584137 0.07820892 C53.96257762 0.08791936 62.03924233 0.1070757 70.11598206 0.12442017 C70.11598206 22.23442017 70.11598206 44.34442017 70.11598206 67.12442017 C45.03598206 67.12442017 19.95598206 67.12442017 -5.88401794 67.12442017 C-5.90464294 56.25504517 -5.92526794 45.38567017 -5.94651794 34.18692017 C-5.95562195 30.75036011 -5.96472595 27.31380005 -5.97410583 23.77310181 C-5.97702468 21.06859374 -5.97957331 18.36408524 -5.98167419 15.65957642 C-5.98428757 14.95231918 -5.98690094 14.24506195 -5.98959351 13.51637268 C-5.9968739 11.44307084 -5.99792527 9.36985194 -5.99754333 7.29653931 C-5.99976395 6.12627701 -6.00198456 4.95601471 -6.00427246 3.75028992 C-5.79805394 -0.75268431 -4.04121125 0.00878398 0 0 Z " fill="#EDEEEE" transform="translate(203.88401794433594,120.87557983398438)"/>
<path d="M0 0 C3.3 0 6.6 0 10 0 C14.21401615 12.54372142 17.52522813 25.00016895 20 38 C20.99 37.505 20.99 37.505 22 37 C22.50310203 34.55504685 22.89918179 32.15531516 23.25 29.6875 C24.84891096 19.49098476 27.86416724 9.81343132 31 0 C34.3 0 37.6 0 41 0 C41 21.12 41 42.24 41 64 C38.36 64 35.72 64 33 64 C32.67 52.12 32.34 40.24 32 28 C31.34 31.96 30.68 35.92 30 40 C29.34652084 42.33706095 28.6810459 44.67082303 28 47 C27.38054744 50.13382291 26.87330382 53.28242325 26.375 56.4375 C26.2409375 57.26443359 26.106875 58.09136719 25.96875 58.94335938 C25.64209225 60.96163765 25.32051785 62.98073757 25 65 C22.03 65 19.06 65 16 65 C14.1662225 59.23782845 13.27463094 53.55099306 12.5 47.5625 C12.2646404 45.75074838 12.02511425 43.93953274 11.78125 42.12890625 C11.67876953 41.33556885 11.57628906 40.54223145 11.47070312 39.72485352 C10.84622406 36.10980641 9.88976334 32.55905336 9 29 C8.67 40.88 8.34 52.76 8 65 C5.69 65 3.38 65 1 65 C0 64 0 64 -0.12025452 61.45005798 C-0.11803391 60.31532547 -0.11581329 59.18059296 -0.11352539 58.01147461 C-0.11344986 56.73022202 -0.11337433 55.44896942 -0.11329651 54.12889099 C-0.10818909 52.72004152 -0.10297309 51.31119244 -0.09765625 49.90234375 C-0.09579202 48.46887766 -0.09436814 47.03541093 -0.09336853 45.60194397 C-0.08954372 41.82240043 -0.07971377 38.0428951 -0.06866455 34.2633667 C-0.05844963 30.40930702 -0.05387074 26.55524118 -0.04882812 22.70117188 C-0.03809146 15.13409713 -0.02101549 7.56705391 0 0 Z " fill="#5E5E5F" transform="translate(325,122)"/>
<path d="M0 0 C7.26 0 14.52 0 22 0 C26.39024234 4.39024234 27.11760721 5.1569213 27.16113281 10.92114258 C27.17074036 11.94593216 27.1803479 12.97072174 27.19024658 14.02656555 C27.19449646 15.13799423 27.19874634 16.24942291 27.203125 17.39453125 C27.20882507 18.53403732 27.21452515 19.6735434 27.22039795 20.84757996 C27.22985769 23.26271636 27.23638578 25.67786572 27.24023438 28.09301758 C27.24993266 31.7868507 27.28094464 35.48012586 27.3125 39.17382812 C27.31903061 41.51822586 27.32428085 43.86262757 27.328125 46.20703125 C27.3404718 47.31238724 27.3528186 48.41774323 27.36553955 49.55659485 C27.36253845 50.59084091 27.35953735 51.62508698 27.35644531 52.69067383 C27.36009094 53.59731277 27.36373657 54.50395172 27.36749268 55.43806458 C26.91919429 58.56332825 25.86741737 60.47375247 24 63 C23.34 63 22.68 63 22 63 C22 63.66 22 64.32 22 65 C14.74 65 7.48 65 0 65 C0 43.55 0 22.1 0 0 Z " fill="#646465" transform="translate(383,122)"/>
<path d="M0 0 C10.56 0 21.12 0 32 0 C32 21.12 32 42.24 32 64 C24.08 64 16.16 64 8 64 C8.495 61.03 8.495 61.03 9 58 C8.06467103 55.42577838 8.06467103 55.42577838 6.5625 53.0625 C4.26301408 48.79019608 3.2405791 45.93623585 4 41 C4.95012124 38.97582866 5.94991347 36.97416268 7 35 C9.72067955 23.8699473 7.08620786 15.65009536 1.8671875 5.859375 C1 4 1 4 0 0 Z " fill="#5A5A5B" transform="translate(240,122)"/>
<path d="M0 0 C12.21 0 24.42 0 37 0 C36.34 1.32 35.68 2.64 35 4 C34.83275263 7.16695956 34.83275263 7.16695956 35 10 C35.66 10 36.32 10 37 10 C43.48260963 18.10326204 44.08738235 27.92125175 43 38 C42.03685937 40.01800895 41.03814794 42.01953317 40 44 C39.44111602 46.73183392 39.44111602 46.73183392 39.3125 49.375 C39.24675781 50.24898437 39.18101562 51.12296875 39.11328125 52.0234375 C39.07589844 52.67570312 39.03851563 53.32796875 39 54 C35.63251488 52.48052501 34.39159663 51.47899158 33 48 C32.34 48 31.68 48 31 48 C31 46.68 31 45.36 31 44 C32.65071396 42.97388051 34.31970006 41.97691857 36 41 C39.1461265 37.3114379 39.56632606 33.84872279 39.43359375 29.1484375 C38.74437457 25.73338751 36.60254494 24.158208 34 22 C33.505 20.515 33.505 20.515 33 19 C29.08396696 21.79420492 29.08396696 21.79420492 27 26 C27.99 26 28.98 26 30 26 C32.4561144 28.35670025 34.35957149 31.02190663 36 34 C35.875 37 35.875 37 35 39 C32.36 39 29.72 39 27 39 C26.34 35.7 25.68 32.4 25 29 C24.34 29 23.68 29 23 29 C22.34 32.3 21.68 35.6 21 39 C20.13117188 39.24234375 19.26234375 39.4846875 18.3671875 39.734375 C12.22626424 41.52032584 7.10427162 43.13730796 2 47 C1.34 47 0.68 47 0 47 C0 31.49 0 15.98 0 0 Z " fill="#5B5B5C" transform="translate(200,122)"/>
<path d="M0 0 C8.58 0 17.16 0 26 0 C26 2.31 26 4.62 26 7 C20.39 7 14.78 7 9 7 C9 13.93 9 20.86 9 28 C14.61 28 20.22 28 26 28 C26 30.64 26 33.28 26 36 C20.06 36 14.12 36 8 36 C8 43.26 8 50.52 8 58 C14.27 58 20.54 58 27 58 C27 60.31 27 62.62 27 65 C18.09 65 9.18 65 0 65 C0 43.55 0 22.1 0 0 Z " fill="#606061" transform="translate(294,122)"/>
<path d="M0 0 C4.45821166 -0.08674429 8.91620804 -0.14030513 13.375 -0.1875 C14.64601563 -0.21263672 15.91703125 -0.23777344 17.2265625 -0.26367188 C18.43828125 -0.27333984 19.65 -0.28300781 20.8984375 -0.29296875 C22.01911621 -0.3086792 23.13979492 -0.32438965 24.29443359 -0.34057617 C25.18727051 -0.22818604 26.08010742 -0.1157959 27 0 C27.66 0.99 28.32 1.98 29 3 C29.66 2.34 30.32 1.68 31 1 C31.33 22.12 31.66 43.24 32 65 C34.31 65.33 36.62 65.66 39 66 C39 66.33 39 66.66 39 67 C32.84765625 67.09765625 32.84765625 67.09765625 31 67 C29.11368457 65.11368457 29.75734708 61.85799307 29.68359375 59.33984375 C29.66281265 58.67537735 29.64203156 58.01091095 29.62062073 57.3263092 C29.55506342 55.19681457 29.49621215 53.06719332 29.4375 50.9375 C29.39432061 49.49673153 29.35070651 48.05597601 29.30664062 46.61523438 C29.19937607 43.0769596 29.09812629 39.53854131 29 36 C28.67 36.66 28.34 37.32 28 38 C22.06 38 16.12 38 10 38 C10 44.27 10 50.54 10 57 C15.28 57 20.56 57 26 57 C26 57.66 26 58.32 26 59 C20.06 59 14.12 59 8 59 C8 51.74 8 44.48 8 37 C13.94 37 19.88 37 26 37 C26 34.36 26 31.72 26 29 C20.39 29 14.78 29 9 29 C9 22.07 9 15.14 9 8 C14.61 8 20.22 8 26 8 C26 5.69 26 3.38 26 1 C17.42 1 8.84 1 0 1 C0 0.67 0 0.34 0 0 Z " fill="#EAECEB" transform="translate(294,121)"/>
<path d="M0 0 C2.97 0 5.94 0 9 0 C9 21.78 9 43.56 9 66 C6.03 66 3.06 66 0 66 C0 44.22 0 22.44 0 0 Z " fill="#5F5F61" transform="translate(370,122)"/>
<path d="M0 0 C0.33 0.99 0.66 1.98 1 3 C4.74676309 7.09802213 8.98693643 10.62996371 13.20703125 14.23046875 C13.79871094 14.81441406 14.39039063 15.39835938 15 16 C15 16.66 15 17.32 15 18 C2.46 18 -10.08 18 -23 18 C-23 7.4 -23 7.4 -20 4 C-13.41335453 -0.00926246 -7.48375881 -0.14674037 0 0 Z " fill="#5B5B5C" transform="translate(223,168)"/>
<path d="M0 0 C2.97 0 5.94 0 9 0 C10.58681989 1.58681989 10.12728536 3.21248346 10.12939453 5.41210938 C10.13254669 6.34978149 10.13569885 7.28745361 10.13894653 8.25354004 C10.1369223 9.27330933 10.13489807 10.29307861 10.1328125 11.34375 C10.13376923 12.38317749 10.13472595 13.42260498 10.13571167 14.49353027 C10.13639363 16.69604554 10.13453827 18.89856279 10.13037109 21.10107422 C10.12502308 24.48539719 10.13031559 27.86958744 10.13671875 31.25390625 C10.13605797 33.38802113 10.13477681 35.52213592 10.1328125 37.65625 C10.13483673 38.67601929 10.13686096 39.69578857 10.13894653 40.74645996 C10.13579437 41.68413208 10.13264221 42.6218042 10.12939453 43.58789062 C10.12820114 44.83246033 10.12820114 44.83246033 10.12698364 46.10217285 C10 48 10 48 9 49 C6.03 49 3.06 49 0 49 C0 32.83 0 16.66 0 0 Z " fill="#EAECEC" transform="translate(392,130)"/>
<path d="M0 0 C24.75 0 49.5 0 75 0 C75.020625 10.704375 75.04125 21.40875 75.0625 32.4375 C75.071604 35.82185303 75.08070801 39.20620605 75.09008789 42.69311523 C75.09300674 45.35660767 75.09555537 48.02010055 75.09765625 50.68359375 C75.10026962 51.38009537 75.102883 52.07659698 75.10557556 52.79420471 C75.11285608 54.83601779 75.11333839 56.87785168 75.11352539 58.91967773 C75.115746 60.07217514 75.11796661 61.22467255 75.12025452 62.41209412 C75 65 75 65 74 66 C72.07332493 66.08748207 70.14348139 66.10697334 68.21484375 66.09765625 C66.46010742 66.09282227 66.46010742 66.09282227 64.66992188 66.08789062 C63.43822266 66.07951172 62.20652344 66.07113281 60.9375 66.0625 C59.08415039 66.05573242 59.08415039 66.05573242 57.19335938 66.04882812 C54.12885883 66.03699608 51.06445279 66.02051173 48 66 C48.495 64.515 48.495 64.515 49 63 C49 63.66 49 64.32 49 65 C56.92 65 64.84 65 73 65 C73 43.88 73 22.76 73 1 C62.44 1 51.88 1 41 1 C41.66 2.98 42.32 4.96 43 7 C40.525 6.01 40.525 6.01 38 5 C37.01 6.32 36.02 7.64 35 9 C35.54723683 5.62537285 36.0549 3.91765 38 1 C25.79 1 13.58 1 1 1 C1 16.51 1 32.02 1 48 C1.66 48.33 2.32 48.66 3 49 C2.01 49 1.02 49 0 49 C0 32.83 0 16.66 0 0 Z " fill="#A7A7A8" transform="translate(199,121)"/>
<path d="M0 0 C0.33 0 0.66 0 1 0 C1 15.84 1 31.68 1 48 C1.99 48 2.98 48 4 48 C4.33 47.01 4.66 46.02 5 45 C7.21484375 43.578125 7.21484375 43.578125 9.9375 42.25 C10.83339844 41.80140625 11.72929687 41.3528125 12.65234375 40.890625 C13.81443359 40.44976562 13.81443359 40.44976562 15 40 C15.66 40.33 16.32 40.66 17 41 C16.67 41.66 16.34 42.32 16 43 C19.3 43.66 22.6 44.32 26 45 C26.33 46.65 26.66 48.3 27 50 C26.34 49.67 25.68 49.34 25 49 C25 48.01 25 47.02 25 46 C22.79005163 46.25732276 20.58205976 46.53147686 18.375 46.8125 C17.14523438 46.96332031 15.91546875 47.11414063 14.6484375 47.26953125 C10.90769427 48.01848091 8.22479698 48.97149867 5 51 C2.40736224 55.60909992 2.40736224 55.60909992 2 64 C14.54 64 27.08 64 40 64 C40 63.34 40 62.68 40 62 C42.31 62.33 44.62 62.66 47 63 C46.67 63.99 46.34 64.98 46 66 C30.82 66 15.64 66 0 66 C0 44.22 0 22.44 0 0 Z " fill="#E1E2E2" transform="translate(198,122)"/>
<path d="M0 0 C5.66990201 2.73719407 7.80085408 5.14384738 10 11 C10.391875 11.94875 10.78375 12.8975 11.1875 13.875 C13.16401155 21.47696749 11.99344675 28.30953706 8.9375 35.5 C7.76352486 38.63060038 7.38947325 41.68947735 7 45 C6.67 45 6.34 45 6 45 C5.855625 44.21625 5.71125 43.4325 5.5625 42.625 C5.12201075 40.03578982 5.12201075 40.03578982 4 38 C4.33 37.01 4.66 36.02 5 35 C5.54942232 26.77979687 5.29661465 19.59025423 2 12 C1.608125 10.989375 1.21625 9.97875 0.8125 8.9375 C0.544375 8.298125 0.27625 7.65875 0 7 C-0.66 7 -1.32 7 -2 7 C-2.125 4.625 -2.125 4.625 -2 2 C-1.34 1.34 -0.68 0.68 0 0 Z " fill="#E5E7E7" transform="translate(237,125)"/>
<path d="M0 0 C2.47692849 2.47692849 2.68192151 4.51503729 3.04296875 7.9296875 C2.97821395 11.04969142 1.42666009 13.25642291 0 16 C-0.54538909 19.32237023 -0.80744254 22.64020424 -1 26 C-4.36748512 24.48052501 -5.60840337 23.47899158 -7 20 C-7.66 20 -8.32 20 -9 20 C-9 18.68 -9 17.36 -9 16 C-7.34928604 14.97388051 -5.68029994 13.97691857 -4 13 C-0.7159327 8.89491588 -0.43112234 5.08724367 0 0 Z " fill="#676768" transform="translate(240,150)"/>
<path d="M0 0 C2.63963433 0.2889705 3.80977908 0.81704594 5.73828125 2.671875 C10.02773422 8.33437868 10.02773422 8.33437868 9.875 12 C9.441875 12.99 9.441875 12.99 9 14 C6.36 14 3.72 14 1 14 C0.66307215 12.39658445 0.33058907 10.79223445 0 9.1875 C-0.185625 8.29417969 -0.37125 7.40085938 -0.5625 6.48046875 C-1 4 -1 4 -1 1 C-0.67 0.67 -0.34 0.34 0 0 Z " fill="#666667" transform="translate(226,147)"/>
<path d="M0 0 C5.94 0 11.88 0 18 0 C18 0.33 18 0.66 18 1 C12.72 1 7.44 1 2 1 C2 7.27 2 13.54 2 20 C7.28 20 12.56 20 18 20 C18 20.66 18 21.32 18 22 C12.06 22 6.12 22 0 22 C0 14.74 0 7.48 0 0 Z " fill="#C7C7C8" transform="translate(302,158)"/>
<path d="M0 0 C0.99 0.495 0.99 0.495 2 1 C4.21150296 7.90841063 5.42575617 14.76214511 5 22 C4.67 22 4.34 22 4 22 C3.67 19.36 3.34 16.72 3 14 C2.34 14 1.68 14 1 14 C1 21.59 1 29.18 1 37 C0.67 37 0.34 37 0 37 C0 24.79 0 12.58 0 0 Z " fill="#B8B8BA" transform="translate(333,150)"/>
<path d="M0 0 C0.66 0.33 1.32 0.66 2 1 C1.67 1.66 1.34 2.32 1 3 C0.67 5.97 0.34 8.94 0 12 C12.54 12 25.08 12 38 12 C38 11.34 38 10.68 38 10 C40.475 10.495 40.475 10.495 43 11 C43 11.66 43 12.32 43 13 C28.48 13 13.96 13 -1 13 C-1 1 -1 1 0 0 Z " fill="#9D9E9E" transform="translate(200,174)"/>
<path d="M0 0 C0.33 0 0.66 0 1 0 C1 10.56 1 21.12 1 32 C0.67 32 0.34 32 0 32 C-0.33 25.73 -0.66 19.46 -1 13 C-1.66 15.97 -2.32 18.94 -3 22 C-3.33 22 -3.66 22 -4 22 C-4.62599202 14.17509977 -2.32514129 7.39062767 0 0 Z " fill="#DEDFDF" transform="translate(356,155)"/>
<path d="M0 0 C0.66 0.33 1.32 0.66 2 1 C1.67 1.66 1.34 2.32 1 3 C4.3 3.66 7.6 4.32 11 5 C11.33 6.65 11.66 8.3 12 10 C11.34 9.67 10.68 9.34 10 9 C10 8.01 10 7.02 10 6 C3.565 6.495 3.565 6.495 -3 7 C-2.67 6.01 -2.34 5.02 -2 4 C-3.98 4.33 -5.96 4.66 -8 5 C-5.31158141 2.74754119 -3.35358125 1.11786042 0 0 Z " fill="#BFBFC0" transform="translate(213,162)"/>
<path d="M0 0 C0.99 0 1.98 0 3 0 C2.83923477 0.58247498 2.67846954 1.16494995 2.51283264 1.76507568 C1.71811623 5.22844927 1.76069922 8.72783374 1.68359375 12.265625 C1.66281265 13.05902283 1.64203156 13.85242065 1.62062073 14.66986084 C1.55540027 17.19648844 1.49636856 19.72321721 1.4375 22.25 C1.3942886 23.96615616 1.35067347 25.68230222 1.30664062 27.3984375 C1.19974717 31.59885546 1.09840271 35.79937489 1 40 C-1.31 40 -3.62 40 -6 40 C-6 39.67 -6 39.34 -6 39 C-4.02 39 -2.04 39 0 39 C0 26.13 0 13.26 0 0 Z " fill="#737374" transform="translate(332,147)"/>
<path d="M0 0 C-1.09351553 3.17119503 -2.0126988 4.00783543 -4.9375 5.8125 C-8 7 -8 7 -11 6 C-9.875 3.5625 -9.875 3.5625 -8 1 C-5.22254752 0.26312485 -2.85864695 0 0 0 Z " fill="#EEEFEF" transform="translate(211,166)"/>
<path d="M0 0 C0.66 0.33 1.32 0.66 2 1 C2.37890625 4.08984375 2.37890625 4.08984375 2.5625 7.9375 C2.62577741 12.63351942 2.62577741 12.63351942 4 17 C3.66015625 19.1640625 3.66015625 19.1640625 3.0625 21.625 C2.86785156 22.44226563 2.67320312 23.25953125 2.47265625 24.1015625 C2.31667969 24.72804687 2.16070312 25.35453125 2 26 C1.67 26 1.34 26 1 26 C0.855625 25.21625 0.71125 24.4325 0.5625 23.625 C0.12201075 21.03578982 0.12201075 21.03578982 -1 19 C-0.505 17.515 -0.505 17.515 0 16 C0.07051114 13.26134713 0.09357765 10.54972412 0.0625 7.8125 C0.05573242 6.68811523 0.05573242 6.68811523 0.04882812 5.54101562 C0.03706354 3.69397617 0.01912865 1.84697787 0 0 Z " fill="#AAABAC" transform="translate(242,144)"/>
<path d="M0 0 C0.99 0.495 0.99 0.495 2 1 C3.74451341 6.52429247 4.20612487 11.22850374 4 17 C3.67 17 3.34 17 3 17 C2.67 14.36 2.34 11.72 2 9 C1.34 9 0.68 9 0 9 C0 6.03 0 3.06 0 0 Z " fill="#C6C6C7" transform="translate(334,155)"/>
<path d="M0 0 C1.44268543 2.88537086 1.02257965 5.53108551 0.9375 8.7109375 C0.99896159 10.96196841 1.37035063 12.84541855 2 15 C-1.875 13.25 -1.875 13.25 -3 11 C-2.34 11 -1.68 11 -1 11 C-1.01160156 10.28972656 -1.02320313 9.57945312 -1.03515625 8.84765625 C-1.04417969 7.92855469 -1.05320313 7.00945312 -1.0625 6.0625 C-1.07410156 5.14597656 -1.08570313 4.22945312 -1.09765625 3.28515625 C-1 1 -1 1 0 0 Z " fill="#AFB0B1" transform="translate(240,165)"/>
<path d="M0 0 C2.0625 0.4375 2.0625 0.4375 4 1 C4 1.66 4 2.32 4 3 C3.01 3 2.02 3 1 3 C1 5.97 1 8.94 1 12 C0.67 12 0.34 12 0 12 C-1 4.375 -1 4.375 -1 1 C-0.67 0.67 -0.34 0.34 0 0 Z " fill="#A5A5A7" transform="translate(226,147)"/>
<path d="M0 0 C0.33 0.66 0.66 1.32 1 2 C1.66 2.33 2.32 2.66 3 3 C1.68 4.32 0.36 5.64 -1 7 C-1 6.34 -1 5.68 -1 5 C-3.64 5 -6.28 5 -9 5 C-9 4.67 -9 4.34 -9 4 C-6.36 3.67 -3.72 3.34 -1 3 C-0.67 2.01 -0.34 1.02 0 0 Z " fill="#D6D6D7" transform="translate(236,157)"/>
<path d="M0 0 C3.00617269 3.00617269 2.59585316 5.82381598 3 10 C2.01 10 1.02 10 0 10 C0 6.7 0 3.4 0 0 Z " fill="#727273" transform="translate(240,150)"/>
<path d="M0 0 C1.65 0.33 3.3 0.66 5 1 C5 1.66 5 2.32 5 3 C1.37 3 -2.26 3 -6 3 C-6 2.67 -6 2.34 -6 2 C-4.02 2 -2.04 2 0 2 C0 1.34 0 0.68 0 0 Z " fill="#979797" transform="translate(238,184)"/>
<path d="M0 0 C0.66 0 1.32 0 2 0 C2.33 0.99 2.66 1.98 3 3 C-0.465 4.485 -0.465 4.485 -4 6 C-2.84826645 3.53199953 -1.95216435 1.95216435 0 0 Z " fill="#C9C9CA" transform="translate(231,141)"/>
</svg>
